<svg enable-background="new 0 0 278.2 112.2" viewBox="0 0 278.2 112.2" xmlns="http://www.w3.org/2000/svg"><path d="m219.7 49.1c-.4.5-8.1 10.7-8.1 10.7-1.2 1.5-2.3 1.5-3.5 0 0 0-7.8-10.2-8.2-10.7-1.1-1.5-2.4-1.5-3.7 0l-10 12.8h47.2l-10-12.8c-1.2-1.4-2.6-1.4-3.7 0z"/><path d="m219.9 28.8c-.4.5-8.3 10.9-8.3 10.9-.6.8-1.1 1-1.7 1s-1.1-.2-1.7-1c0 0-7.9-10.3-8.4-10.9-1.1-1.3-2.4-1.3-3.5 0-.6.7-10.2 12.8-10.2 12.8v20.4 15h47.2v-15h.1v-20.5l-10.1-12.7c-1-1.3-2.3-1.3-3.4 0z" fill="none"/><path d="m209.9 5.2c-27.6 0-50 22.4-50 50s22.4 50 50 50 50-22.4 50-50-22.4-50-50-50zm23.5 56.8-.1 15h-47.2v-15-20.4s9.6-12.1 10.2-12.8c1.1-1.3 2.4-1.3 3.5 0 .5.6 8.4 10.9 8.4 10.9.6.8 1.1 1 1.7 1s1.1-.2 1.7-1c0 0 7.9-10.4 8.3-10.9 1.1-1.3 2.4-1.3 3.4 0l10.1 12.7z"/><path d="m33.1 50.7c0 4.3-1.9 6.8-6.9 6.8h-4.2v-13.4c.5-.1 2.4-.1 2.9-.1h1.5c5 0 6.7 2.3 6.7 6.7zm10.2 16.6c0-6.6-5.3-8.9-11.8-9.1v-.2c5.5-.4 10-2.8 10-8.3 0-6.2-5.1-7.4-10.9-7.4-6.9 0-15 .2-21.9 0v1.7c1.5-.1 5 .1 5 1.9v27.2c0 1.8-3.6 2.1-5 2.1v1.7c6.7-.2 14.5 0 21.2 0 7.1 0 13.4-2.4 13.4-9.6zm-8.8-.6c0 5.6-1.9 8.3-8.5 8.3h-4v-15.7h4.4c5.9 0 8.1 2.1 8.1 7.4z"/><path d="m87.8 76.9c-3.1 0-6.2 0-9.3.1v-1.7c1.4 0 5.3-.1 5.3-2v-25.5h-.1l-14.2 29.5h-1.5l-13.7-29.5h-.1v25.4c0 2 4.1 2 5.5 2l.1 1.7c-3.8-.2-9.1-.2-12.9 0v-1.7c1.5 0 5-.1 5-2v-27.2c0-1.8-3.6-2-5-2l-.1-1.7c4.4.2 9.1.2 13.5 0l11.8 24.7 12-24.7c4.2.2 8.8.1 13-.1v1.8c-1.4 0-5.1.1-5.1 2v27.2c0 1.9 3.6 2 5.1 2v1.7c-3.1-.1-6.3 0-9.3 0z"/><path d="m129.6 59.5c0 6.8-.7 16.2-10.4 16.2-9.8 0-10.5-9.4-10.5-16.2s.7-16.1 10.5-16.1c9.7 0 10.4 9.4 10.4 16.1zm9.1 0c0-11.4-7-17.9-19.6-17.9s-19.6 6.4-19.6 17.9 7 17.9 19.6 17.9c12.7 0 19.6-6.4 19.6-17.9z"/><path d="m263.2 29.2-2.1-6.6h-1.6v7.9h1v-6.6h.1l2.1 6.6h1l2-6.6h.2v6.6h1v-7.9h-1.6z"/><path d="m270.6 22.6h-2.3v7.9h2.3c2.7 0 3.4-1.5 3.4-4.2 0-2.5-.9-3.7-3.4-3.7zm.1 7.1h-1.3v-6.2h1.3c2 0 2.3 1.1 2.3 3 0 2.9-1.6 3.2-2.3 3.2"/></svg>